<?xml version="1.0" encoding="UTF-8"?>
<svg version="1.1" xmlns="http://www.w3.org/2000/svg" width="1190" height="675">
<path d="M0 0 C60 0 60 0 74 12 C77.97553964 15.27403612 77.97553964 15.27403612 81.96484375 18.53125 C91.56671928 26.34126974 101.11341014 34.21533705 110.53857422 42.23779297 C114.43194724 45.54293211 118.40356635 48.73529282 122.40625 51.90625 C126.05401433 54.85083084 129.6145398 57.89451533 133.18359375 60.93359375 C136.41424312 63.67774533 139.67698054 66.36747809 143 69 C147.47931906 72.54855146 151.83340036 76.22936876 156.18359375 79.93359375 C159.41424312 82.67774533 162.67698054 85.36747809 166 88 C170.47931906 91.54855146 174.83340036 95.22936876 179.18359375 98.93359375 C183.19963908 102.3448699 187.29092151 105.6465201 191.421875 108.91796875 C194.40967168 111.33084092 197.33056197 113.81796079 200.25 116.3125 C204.7063918 120.11744166 209.24171687 123.78798412 213.875 127.375 C219.64510808 131.84796452 225.17217249 136.55501871 230.66430664 141.36352539 C235.66154839 145.7321009 240.78189649 149.89509191 246 154 C249.3 156.64 252.6 159.28 256 162 C256.33 108.54 256.66 55.08 257 0 C258.65 1.65 260.3 3.3 262 5 C273.35321835 15.22952097 285.70431076 20.61481201 301.08203125 20.24609375 C316.16404003 18.97411711 327.53196295 12.76958544 338 2 C338.33 1.34 338.66 0.68 339 0 C340.82641602 0.21630859 340.82641602 0.21630859 343 1 C344.44116211 2.95166016 344.44116211 2.95166016 345.77734375 5.5390625 C346.28370361 6.4995752 346.79006348 7.46008789 347.31176758 8.44970703 C348.11650513 10.02147705 348.11650513 10.02147705 348.9375 11.625 C350.10475486 13.84481124 351.27407584 16.0635371 352.4453125 18.28125 C353.03860352 19.41046875 353.63189453 20.5396875 354.24316406 21.703125 C356.83510638 26.56715905 359.57016663 31.34468801 362.3125 36.125 C367.43403299 45.10338332 372.34329079 54.18278368 377.1875 63.3125 C382.54917102 73.41663945 387.98495913 83.46918914 393.57568359 93.44873047 C396.67324253 98.99715194 399.74168172 104.56174918 402.8125 110.125 C403.15697174 110.74877533 403.50144348 111.37255066 403.85635376 112.01522827 C408.51034109 120.44527961 413.11907719 128.89818544 417.6875 137.375 C422.5205179 146.34097822 427.48577278 155.22489606 432.51904297 164.07983398 C436.44941846 171.00023685 440.28490728 177.96158798 444 185 C446.78262349 181.68888361 448.96266946 178.45966122 450.91796875 174.60546875 C451.44632324 173.57454102 451.97467773 172.54361328 452.51904297 171.48144531 C453.06963379 170.39444336 453.62022461 169.30744141 454.1875 168.1875 C458.40206884 159.93033678 462.65731827 151.74179143 467.54760742 143.86010742 C469.54584062 140.50301241 469.54584062 140.50301241 469.78466797 136.69580078 C468.84010665 133.45067133 467.45931324 130.73677886 465.859375 127.7578125 C465.54101685 127.16157578 465.22265869 126.56533905 464.89465332 125.95103455 C463.85307644 124.00537309 462.80183105 122.06513441 461.75 120.125 C461.02020998 118.76765683 460.29072085 117.41015186 459.56152344 116.05249023 C454.7159266 107.05550067 449.72830153 98.14473515 444.65527344 89.27392578 C440.41225035 81.82170597 436.44426155 74.24633057 432.51855469 66.62329102 C428.49636155 58.85290509 424.21695692 51.24978214 419.87304688 43.65576172 C414.4222635 34.08081463 409.36246352 24.31505308 404.328125 14.51660156 C402.60706012 11.25543671 400.76967274 8.06639927 398.90039062 4.88818359 C398 3 398 3 398 0 C426.05 0 454.1 0 483 0 C497.89069905 26.34508294 497.89069905 26.34508294 502.5 35.375 C503.44674227 37.21675 504.39464339 39.0579048 505.34375 40.8984375 C505.78203125 41.75018555 506.2203125 42.60193359 506.671875 43.47949219 C508.4043373 46.76734895 510.23846007 49.99298407 512.09960938 53.20947266 C513 55 513 55 513 57 C515.89866553 54.45883111 517.43597591 51.60809447 519.22265625 48.21484375 C519.83898926 47.05243164 520.45532227 45.89001953 521.09033203 44.69238281 C521.41245667 44.07899048 521.7345813 43.46559814 522.06646729 42.83361816 C523.7401544 39.64746926 525.43213767 36.47104144 527.12109375 33.29296875 C527.45488037 32.66363434 527.78866699 32.03429993 528.13256836 31.38589478 C530.91381924 26.14606398 533.74467451 20.93594212 536.625 15.75 C537.00148682 15.06800537 537.37797363 14.38601074 537.76586914 13.68334961 C538.45241219 12.4509068 539.14971612 11.22434396 539.86169147 10.00641632 C540.62141346 8.66730786 541.33788544 7.30274307 542.00928783 5.91724396 C543.17706418 3.69806612 544.31285118 1.86004132 546 0 C549.21975229 -0.80913144 551.159935 -1.0270685 554.37036133 -0.90820312 C555.20014496 -0.90937134 556.02992859 -0.91053955 556.88485718 -0.91174316 C559.61897069 -0.90618317 562.34868343 -0.84403993 565.08203125 -0.78125 C566.98058184 -0.7663238 568.87916329 -0.75493857 570.77775574 -0.74694824 C575.76807151 -0.71644359 580.75651597 -0.63789588 585.74609375 -0.54931641 C590.84023726 -0.4673883 595.93468405 -0.43092195 601.02929688 -0.390625 C611.0203522 -0.30489932 621.01002033 -0.16841308 631 0 C630.26382847 4.08247632 629.06706896 7.11097736 627.078125 10.76953125 C626.47145996 11.89327148 625.86479492 13.01701172 625.23974609 14.17480469 C624.57662007 15.38743688 623.91336821 16.60000028 623.25 17.8125 C622.56662164 19.07291792 621.88384945 20.33366467 621.20166016 21.59472656 C619.80957924 24.16554313 618.41382059 26.73430559 617.01464844 29.30126953 C615.19291262 32.64371452 613.37997716 35.99084442 611.5703125 39.33984375 C608.91611188 44.25075796 606.25563601 49.15823125 603.59277344 54.06445312 C600.89235419 59.04143673 598.19643093 64.02085484 595.5 69 C594.41668763 71.00001136 593.33335431 73.00001136 592.25 75 C591.445625 76.485 591.445625 76.485 590.625 78 C589 81 587.375 84 585.75 87 C585.2130249 87.99136963 584.6760498 88.98273926 584.12280273 90.00415039 C583.04689863 91.99037264 581.97089068 93.97653864 580.89477539 95.96264648 C578.07189063 101.17297329 575.25118364 106.38446398 572.43359375 111.59765625 C571.55574219 113.2209082 571.55574219 113.2209082 570.66015625 114.87695312 C569.54360057 116.94169497 568.42767563 119.00677808 567.3125 121.07226562 C566.80589844 122.00876953 566.29929687 122.94527344 565.77734375 123.91015625 C565.30538574 124.79203613 564.83342773 125.67391602 564.34716797 126.58251953 C563 129 563 129 561.67236328 131.02294922 C560.33355589 132.97888757 560.33355589 132.97888757 559 136 C560.03779827 140.04168014 561.69043348 143.55505896 563.6875 147.203125 C564.21690186 148.17556152 564.74630371 149.14799805 565.29174805 150.14990234 C565.85547119 151.17293457 566.41919434 152.1959668 567 153.25 C567.5772583 154.30525879 568.1545166 155.36051758 568.74926758 156.44775391 C569.92758686 158.59898694 571.10832616 160.74889623 572.29150391 162.89746094 C573.8703826 165.76462161 575.4418971 168.63568662 577.01171875 171.5078125 C577.90304775 173.13053699 578.79493811 174.75295332 579.6875 176.375 C580.30141602 177.49696777 580.30141602 177.49696777 580.92773438 178.64160156 C582.44393851 181.37825961 583.77574158 183.77574158 586 186 C586.44690186 185.15107178 586.89380371 184.30214355 587.35424805 183.42749023 C595.09468295 168.73589391 602.86069014 154.07759386 611.11401367 139.66577148 C615.56477864 131.85747232 619.79507022 123.94221674 624 116 C629.20754705 106.1644642 634.53979994 96.42294325 640.06640625 86.76171875 C644.53016828 78.91997465 648.77810762 70.97342073 653 63 C658.27273098 53.04323265 663.66162272 43.17217118 669.25097656 33.38818359 C673.95021577 25.14610103 678.47001537 16.8116992 682.9519043 8.44970703 C683.46793213 7.48919434 683.98395996 6.52868164 684.515625 5.5390625 C684.97227539 4.68521973 685.42892578 3.83137695 685.89941406 2.95166016 C687 1 687 1 688 0 C690.61688441 -0.09509559 693.207289 -0.12556 695.82446289 -0.11352539 C696.64390884 -0.11367142 697.4633548 -0.11381744 698.30763245 -0.1139679 C701.02933353 -0.11326852 703.75096705 -0.10547501 706.47265625 -0.09765625 C708.35452741 -0.09579216 710.23639906 -0.09436821 712.11827087 -0.09336853 C717.08148529 -0.08954267 722.04467064 -0.07971181 727.00787354 -0.06866455 C732.06839606 -0.0584519 737.12892327 -0.05387122 742.18945312 -0.04882812 C752.12631488 -0.0380896 762.06315503 -0.02101236 772 0 C771.22765859 4.36687867 769.71079046 7.84299923 767.60546875 11.71484375 C767.0906041 12.67982033 767.0906041 12.67982033 766.56533813 13.66429138 C765.4456734 15.7587968 764.31676566 17.84815774 763.1875 19.9375 C762.40600906 21.39443392 761.62500691 22.85163012 760.84448242 24.30908203 C755.59419282 34.09932914 750.28749711 43.85904565 744.94921875 53.6015625 C741.64613907 59.63579869 738.38399623 65.69186866 735.125 71.75 C734.24896118 73.37832764 734.24896118 73.37832764 733.35522461 75.03955078 C731.56968157 78.35944905 729.78472918 81.67966415 728 85 C720.88055124 98.24512496 713.74958613 111.48290884 706.53637695 124.67724609 C702.0838691 132.82902075 697.68031154 141.00678907 693.28125 149.1875 C688.83609627 157.45255507 684.37064177 165.70640717 679.89697266 173.95605469 C675.89578413 181.33782933 671.91408492 188.72994735 667.9375 196.125 C663.17053568 204.98841058 658.37240396 213.83393209 653.54321289 222.66357422 C649.62131298 229.84169767 645.74517434 237.04388264 641.875 244.25 C637.68612621 252.04332051 633.47673423 259.82388161 629.1875 267.5625 C628.77290527 268.31241211 628.35831055 269.06232422 627.93115234 269.83496094 C625.12404186 274.87595814 625.12404186 274.87595814 624 276 C621.56603981 276.09498646 619.16057048 276.12558417 616.72631836 276.11352539 C615.96539383 276.11367142 615.2044693 276.11381744 614.42048645 276.1139679 C611.89357702 276.11326862 609.36674038 276.10547555 606.83984375 276.09765625 C605.0924941 276.09579212 603.34514393 276.0943682 601.59779358 276.09336853 C596.98968066 276.08954293 592.38159905 276.07971229 587.77349854 276.06866455 C583.07491479 276.05845134 578.37632601 276.0538711 573.67773438 276.04882812 C564.45180913 276.03809005 555.22590716 276.02101313 546 276 C534.57964678 255.17109667 534.57964678 255.17109667 529.21484375 244.95703125 C528.67447983 243.92979446 528.67447983 243.92979446 528.12319946 242.88180542 C526.68876906 240.15290395 525.25600831 237.42317911 523.83032227 234.68969727 C522.75510297 232.63033886 521.67306318 230.57469008 520.58984375 228.51953125 C520.27111801 227.90406937 519.95239227 227.28860748 519.62400818 226.65449524 C518.05370004 223.68768719 516.5648624 221.19670033 514 219 C513.54786133 219.85416504 513.09572266 220.70833008 512.62988281 221.58837891 C497.44992275 250.25646274 497.44992275 250.25646274 490.0625 263.8125 C489.57362305 264.7111377 489.08474609 265.60977539 488.58105469 266.53564453 C488.1327832 267.35532715 487.68451172 268.17500977 487.22265625 269.01953125 C486.83859619 269.72182861 486.45453613 270.42412598 486.05883789 271.14770508 C485.10996743 272.80762673 484.06057967 274.40913049 483 276 C480.45647517 276.28660203 478.15713036 276.37857678 475.61279297 276.34057617 C474.47118713 276.34123329 474.47118713 276.34123329 473.30651855 276.34190369 C470.78481607 276.33980959 468.26377417 276.31645001 465.7421875 276.29296875 C463.99627038 276.28737499 462.25034856 276.28310385 460.50442505 276.28010559 C455.9044296 276.26863948 451.30471737 276.23915727 446.70483398 276.20599365 C442.01289705 276.17533071 437.32091445 276.16160835 432.62890625 276.14648438 C423.41914625 276.11428913 414.20959666 276.06307159 405 276 C404.23167595 274.54637558 404.23167595 274.54637558 403.4478302 273.06338501 C401.51798338 269.41264808 399.58727459 265.76236757 397.65632629 262.11221313 C396.82620194 260.54271364 395.99630071 258.97309612 395.16664124 257.40335083 C389.01745442 245.76937797 382.78204544 234.18734175 376.45068359 222.65136719 C373.78355684 217.77674643 371.1434546 212.88748505 368.5 208 C364.25735821 200.16266052 360.01096847 192.32739356 355.75 184.5 C355.30333984 183.67757812 354.85667969 182.85515625 354.39648438 182.0078125 C350.00993087 173.95839159 345.49579353 165.99252183 341 158 C340.67 196.94 340.34 235.88 340 276 C329.831875 276.185625 319.66375 276.37125 309.1875 276.5625 C305.99860107 276.64443604 302.80970215 276.72637207 299.52416992 276.81079102 C296.96797076 276.83710123 294.41173361 276.86002937 291.85546875 276.87890625 C290.55146118 276.92494995 289.24745361 276.97099365 287.90393066 277.01843262 C277.84147845 277.02699803 273.03646441 273.97818569 266 267 C264.61439231 265.83483053 263.21844499 264.68162974 261.8046875 263.55078125 C260.49464262 262.47153507 259.18474885 261.39210542 257.875 260.3125 C256.40364985 259.10025554 254.93229557 257.8880161 253.4609375 256.67578125 C252.72198242 256.06686035 251.98302734 255.45793945 251.22167969 254.83056641 C247.6483795 251.88632412 244.07415572 248.9432036 240.5 246 C239.08332863 244.83333904 237.66666197 243.66667237 236.25 242.5 C235.54875 241.9225 234.8475 241.345 234.125 240.75 C227.75 235.5 227.75 235.5 225.62353516 233.7487793 C224.21177011 232.5861588 222.79998636 231.42356102 221.38818359 230.26098633 C217.77136578 227.28260241 214.15490818 224.30378282 210.5390625 221.32421875 C201.52945437 213.90002692 201.52945437 213.90002692 192.5 206.5 C185.72455878 200.96297024 178.97452324 195.39510975 172.22167969 189.83056641 C168.6483795 186.88632412 165.07415572 183.9432036 161.5 181 C160.08332863 179.83333904 158.66666197 178.66667237 157.25 177.5 C156.54875 176.9225 155.8475 176.345 155.125 175.75 C131.75 156.5 108.375 137.25 85 118 C84.67 170.14 84.34 222.28 84 276 C70.635 283.425 70.635 283.425 57 291 C48.11034544 296.16601458 48.11034544 296.16601458 39.234375 301.35546875 C32.73970362 305.16018295 26.22312618 308.92597229 19.693573 312.67044067 C18.45143657 313.38331038 17.20998701 314.09737843 15.9692688 314.81271362 C14.23786801 315.81064212 12.50374918 316.80385025 10.76953125 317.796875 C9.77542236 318.36760742 8.78131348 318.93833984 7.75708008 319.52636719 C5 321 5 321 0 323 C0 216.41 0 109.82 0 0 Z " fill="#143F69" transform="translate(311,231)"/>
<path d="M0 0 C1.39798828 0.67869141 1.39798828 0.67869141 2.82421875 1.37109375 C27.32362575 13.97957518 42.55830857 37.07939492 51.84375 62.33203125 C55.91974381 75.26229541 58.65612192 88.51433971 60 102 C60.11085938 102.97839844 60.22171875 103.95679688 60.3359375 104.96484375 C65.56788 158.7690092 51.89026695 212.96049211 34.0625 263.25 C33.68504639 264.32193604 33.30759277 265.39387207 32.91870117 266.49829102 C32.56525635 267.47338623 32.21181152 268.44848145 31.84765625 269.453125 C31.53836182 270.31067383 31.22906738 271.16822266 30.91040039 272.05175781 C30 274 30 274 28 275 C29.67963111 268.07552623 31.49117151 261.21312292 33.49926758 254.37695312 C36.38190668 244.49545593 38.86316527 234.60871434 40.8125 224.5 C41.0069873 223.5001709 41.20147461 222.5003418 41.40185547 221.47021484 C44.10416566 206.86062753 45.35413916 192.51330731 45.31567383 177.67138672 C45.31251041 175.13335235 45.33611079 172.59648587 45.36132812 170.05859375 C45.4824431 138.73384046 37.44034993 108.56613484 15.75 85.25 C0.47063169 70.60727203 -20.71354318 64.41795879 -41.50952148 64.64868164 C-63.45446118 65.3636547 -84.42561941 72.44320078 -104 82 C-104.69125977 82.33338379 -105.38251953 82.66676758 -106.09472656 83.01025391 C-136.93276449 98.05089203 -163.96082555 120.77151985 -188.08666992 144.90136719 C-189.55955972 146.3720641 -191.04030265 147.83453534 -192.52148438 149.296875 C-198.79124872 155.53012696 -204.48820307 162.08361755 -210 169 C-210.94729967 170.1245325 -211.90052197 171.24414316 -212.86328125 172.35546875 C-233.84762149 196.61965802 -251.45502563 223.99224445 -267 252 C-267.44988281 252.8034082 -267.89976562 253.60681641 -268.36328125 254.43457031 C-292.09131402 297.0697591 -309.1709013 345.4687425 -315 394 C-315.0942627 394.72276123 -315.18852539 395.44552246 -315.28564453 396.19018555 C-319.49800883 432.01788867 -316.52911359 473.36999307 -294.0625 503 C-280.92622716 519.50493069 -262.43541351 528.93145357 -241.625 531.625 C-240.08479967 531.76692972 -238.54292512 531.89163402 -237 532 C-236.24976563 532.05414062 -235.49953125 532.10828125 -234.7265625 532.1640625 C-180.36829905 534.05031139 -130.98960478 496.73090279 -93 462 C-92.34 462.33 -91.68 462.66 -91 463 C-94.41057132 466.43553609 -97.8246019 469.86758565 -101.24169922 473.29663086 C-102.40050319 474.46042274 -103.55840322 475.62511549 -104.71533203 476.79077148 C-110.964287 483.08563494 -117.20890116 489.28310437 -124 495 C-124.96421875 495.845625 -125.9284375 496.69125 -126.921875 497.5625 C-147.22502657 515.06134887 -169.3156421 530.43426633 -193 543 C-193.63292969 543.33837891 -194.26585937 543.67675781 -194.91796875 544.02539062 C-229.94587514 562.60510162 -273.62073869 576.46092149 -313.01611328 564.38183594 C-337.81007544 556.39053779 -358.15459535 539.61667459 -370.421875 516.578125 C-401.56638832 455.13538155 -388.52487923 377.87460961 -368.2421875 315.3203125 C-349.45557243 258.12125392 -321.29255332 201.26205525 -284.25048828 153.62695312 C-282.42329908 151.2496808 -280.68178722 148.8134783 -278.9375 146.375 C-268.08048927 131.39904086 -256.13099742 117.34015675 -243.5625 103.78125 C-241.27633257 101.29992193 -239.04126882 98.78269184 -236.8125 96.25 C-232.66248344 91.62805015 -228.32037999 87.21202192 -223.9375 82.8125 C-223.27661377 82.14702148 -222.61572754 81.48154297 -221.93481445 80.79589844 C-218.01863538 76.89185277 -213.99216537 73.1734345 -209.8059082 69.56079102 C-207.54044898 67.60282417 -205.33376655 65.58401818 -203.125 63.5625 C-198.23620645 59.16258581 -193.20444087 55.02032422 -188 51 C-187.43571289 50.56316895 -186.87142578 50.12633789 -186.29003906 49.67626953 C-155.29771417 25.7798581 -121.05153124 5.24256963 -83 -5 C-82.22060059 -5.21172852 -81.44120117 -5.42345703 -80.63818359 -5.64160156 C-54.68274962 -12.37177573 -24.29640759 -11.92227154 0 0 Z " fill="#D1AA4E" transform="translate(494,58)"/>
<path d="M0 0 C10.73342696 6.0520152 19.42395215 15.15790612 22.8996582 27.21606445 C25.59527497 39.70657364 23.48699372 51.75580872 17.00390625 62.5859375 C11.09254785 71.27134118 2.43653722 76.65239344 -7.40234375 79.91015625 C-20.55464525 82.36189189 -32.33222737 80.10797339 -43.39453125 72.703125 C-51.7028959 66.29110606 -57.50003179 57.66994191 -59.64453125 47.328125 C-61.12012279 34.31256809 -59.06218823 23.1913118 -51.328125 12.390625 C-39.3476464 -2.2861562 -17.54416349 -7.72487198 0 0 Z " fill="#B18B38" transform="translate(627.64453125,161.671875)"/>
<path d="M0 0 C2.875 -0.1875 2.875 -0.1875 6 0 C7.88524 2.82786 8.40846467 4.19653214 9.03515625 7.4140625 C9.28942383 8.67863281 9.28942383 8.67863281 9.54882812 9.96875 C9.8030957 11.28359375 9.8030957 11.28359375 10.0625 12.625 C10.40420963 14.36784616 10.74909153 16.11007438 11.09765625 17.8515625 C11.24726807 18.62322754 11.39687988 19.39489258 11.55102539 20.18994141 C11.83696322 22.00898788 11.83696322 22.00898788 13 23 C13.14099121 22.3387915 13.28198242 21.67758301 13.42724609 20.99633789 C14.06776375 18.01643571 14.72119559 15.03951388 15.375 12.0625 C15.70757813 10.50112305 15.70757813 10.50112305 16.046875 8.90820312 C16.26601563 7.91884766 16.48515625 6.92949219 16.7109375 5.91015625 C16.90993652 4.99371338 17.10893555 4.07727051 17.31396484 3.13305664 C17.65355225 2.0771936 17.65355225 2.0771936 18 1 C20.70879335 -0.35439668 23.00933268 -0.06501451 26 0 C29.24374925 7.78499819 31.02202056 15.81525749 33 24 C34.65 16.41 36.3 8.82 38 1 C41.465 0.505 41.465 0.505 45 0 C46.32013972 4.51419974 45.58432791 7.72724428 44.41796875 12.234375 C44.24372879 12.91300598 44.06948883 13.59163696 43.88996887 14.29083252 C43.52094536 15.71753853 43.14662928 17.14288489 42.76733398 18.56689453 C42.18660807 20.75335816 41.62638207 22.9443641 41.06835938 25.13671875 C40.70693315 26.52375179 40.34434355 27.91048231 39.98046875 29.296875 C39.64942139 30.55854492 39.31837402 31.82021484 38.97729492 33.12011719 C38 36 38 36 36 37 C32.5625 37.375 32.5625 37.375 29 37 C26.19066077 33.35801323 25.29201865 29.70409059 24.375 25.25 C23.84856236 21.30917601 23.84856236 21.30917601 22 18 C21.73445312 19.20398438 21.46890625 20.40796875 21.1953125 21.6484375 C20.83892507 23.2240451 20.48213322 24.79956127 20.125 26.375 C19.95097656 27.1690625 19.77695312 27.963125 19.59765625 28.78125 C19.33662109 29.92207031 19.33662109 29.92207031 19.0703125 31.0859375 C18.91320801 31.7876709 18.75610352 32.4894043 18.59423828 33.21240234 C18 35 18 35 16 37 C9.67741935 37.33870968 9.67741935 37.33870968 7 36 C6.25129338 33.79371889 5.61084221 31.55044756 5.01953125 29.296875 C4.84242111 28.62207092 4.66531097 27.94726685 4.48283386 27.25201416 C4.10984463 25.82060616 3.74109096 24.38808889 3.3762207 22.95458984 C2.81741777 20.76923235 2.23877188 18.58981812 1.65820312 16.41015625 C1.29825695 15.01854473 0.93949476 13.62662631 0.58203125 12.234375 C0.25436768 10.96819336 -0.0732959 9.70201172 -0.41088867 8.39746094 C-0.97511488 5.14351486 -0.91697171 3.13557223 0 0 Z " fill="#133E67" transform="translate(930,523)"/>
<path d="M0 0 C0.07405295 4.80546679 0.12855497 9.6106029 0.16479492 14.41650391 C0.17989911 16.05197941 0.20038389 17.68741429 0.22631836 19.32275391 C0.26263145 21.67100024 0.27970932 24.01871205 0.29296875 26.3671875 C0.30845261 27.10057343 0.32393646 27.83395935 0.33988953 28.58956909 C0.34057617 30.65185547 0.34057617 30.65185547 0 34 C-3 36 -3 36 -6.3515625 36.21484375 C-11.12997197 34.62374595 -11.93226209 32.61689023 -14.12109375 28.25585938 C-14.74177734 26.92264648 -14.74177734 26.92264648 -15.375 25.5625 C-15.81199219 24.67755859 -16.24898437 23.79261719 -16.69921875 22.88085938 C-17.82268934 20.5973967 -18.91618897 18.3024516 -20 16 C-20.33 15.34 -20.66 14.68 -21 14 C-21.02505615 14.63091553 -21.0501123 15.26183105 -21.07592773 15.91186523 C-21.19154137 18.75396825 -21.31442316 21.59571083 -21.4375 24.4375 C-21.47681641 25.43072266 -21.51613281 26.42394531 -21.55664062 27.44726562 C-21.59853516 28.39150391 -21.64042969 29.33574219 -21.68359375 30.30859375 C-21.72025146 31.18314209 -21.75690918 32.05769043 -21.79467773 32.95874023 C-22 35 -22 35 -23 36 C-25.5 36.125 -25.5 36.125 -28 36 C-29 35 -29 35 -29.11352539 31.67358398 C-29.11336629 30.19774444 -29.10767314 28.72189931 -29.09765625 27.24609375 C-29.09553383 26.08292381 -29.09553383 26.08292381 -29.09336853 24.89625549 C-29.08775345 22.40996506 -29.07519846 19.9237634 -29.0625 17.4375 C-29.05748694 15.75586067 -29.0529237 14.07421994 -29.04882812 12.39257812 C-29.03777913 8.26168434 -29.02050445 4.13085724 -29 0 C-27.39298166 -0.09129292 -25.78447551 -0.1566683 -24.17578125 -0.2109375 C-22.83253784 -0.26967041 -22.83253784 -0.26967041 -21.4621582 -0.32958984 C-19 0 -19 0 -17.33862305 1.56445312 C-16.01634362 3.64420375 -15.00640988 5.74995506 -14 8 C-13.06460714 9.83440932 -12.12711541 11.66774995 -11.1875 13.5 C-10.465625 14.985 -9.74375 16.47 -9 18 C-8.67 12.06 -8.34 6.12 -8 0 C-5.13822943 -1.43088528 -3.06624227 -0.59991697 0 0 Z " fill="#133E68" transform="translate(583,524)"/>
<path d="M0 0 C2.71336991 2.71336991 1.23009389 10.66068821 1.24023438 14.58251953 C1.24993087 16.85877139 1.28093629 19.13411692 1.3125 21.41015625 C1.31903079 22.85416129 1.32428096 24.29817281 1.328125 25.7421875 C1.34214355 27.72001221 1.34214355 27.72001221 1.35644531 29.73779297 C1 33 1 33 -0.31103516 34.9362793 C-2 36 -2 36 -5.3515625 36.27734375 C-10.09859043 34.61537573 -10.93295266 32.61551435 -13.12109375 28.25585938 C-13.74177734 26.92264648 -13.74177734 26.92264648 -14.375 25.5625 C-14.81199219 24.67755859 -15.24898437 23.79261719 -15.69921875 22.88085938 C-16.82268934 20.5973967 -17.91618897 18.3024516 -19 16 C-19.33 15.34 -19.66 14.68 -20 14 C-20.02505615 14.63091553 -20.0501123 15.26183105 -20.07592773 15.91186523 C-20.19154137 18.75396825 -20.31442316 21.59571083 -20.4375 24.4375 C-20.47681641 25.43072266 -20.51613281 26.42394531 -20.55664062 27.44726562 C-20.59853516 28.39150391 -20.64042969 29.33574219 -20.68359375 30.30859375 C-20.72025146 31.18314209 -20.75690918 32.05769043 -20.79467773 32.95874023 C-21 35 -21 35 -22 36 C-24.5 36.125 -24.5 36.125 -27 36 C-28 35 -28 35 -28.11352539 31.67358398 C-28.11336629 30.19774444 -28.10767314 28.72189931 -28.09765625 27.24609375 C-28.09553383 26.08292381 -28.09553383 26.08292381 -28.09336853 24.89625549 C-28.08775345 22.40996506 -28.07519846 19.9237634 -28.0625 17.4375 C-28.05748694 15.75586067 -28.0529237 14.07421994 -28.04882812 12.39257812 C-28.03777913 8.26168434 -28.02050445 4.13085724 -28 0 C-24.7 0 -21.4 0 -18 0 C-14.7 5.94 -11.4 11.88 -8 18 C-7.67 12.06 -7.34 6.12 -7 0 C-4.31633121 -1.3418344 -2.84719317 -0.73004953 0 0 Z " fill="#133C67" transform="translate(697,524)"/>
<path d="M0 0 C0 11.55 0 23.1 0 35 C-7 36 -7 36 -9.66796875 34.08203125 C-12.41119499 30.45656139 -14.3813026 26.78612051 -16.3125 22.6875 C-18.1378125 18.8821875 -18.1378125 18.8821875 -20 15 C-20.33 21.6 -20.66 28.2 -21 35 C-23.97 35.495 -23.97 35.495 -27 36 C-28 35 -28 35 -28.11352539 31.67358398 C-28.11336629 30.19774444 -28.10767314 28.72189931 -28.09765625 27.24609375 C-28.09553383 26.08292381 -28.09553383 26.08292381 -28.09336853 24.89625549 C-28.08775345 22.40996506 -28.07519846 19.9237634 -28.0625 17.4375 C-28.05748694 15.75586067 -28.0529237 14.07421994 -28.04882812 12.39257812 C-28.03777913 8.26168434 -28.02050445 4.13085724 -28 0 C-24.7 0 -21.4 0 -18 0 C-14.7 6.27 -11.4 12.54 -8 19 C-7.67 12.73 -7.34 6.46 -7 0 C-5 -1 -5 -1 0 0 Z " fill="#143F69" transform="translate(444,524)"/>
<path d="M0 0 C3.46040022 2.61640017 5.40987737 4.78284893 6.5625 8.9375 C6.81155576 11.66312142 6.97085656 14.27322776 7 17 C7.01015137 17.68473389 7.02030273 18.36946777 7.03076172 19.07495117 C6.95074164 23.74372851 6.00109483 26.97259042 3.5625 30.9375 C-1.614267 35.72600948 -5.79972355 36.29628305 -12.640625 36.21484375 C-16.96063075 35.78646329 -19.0232291 34.64046446 -22.4375 31.9375 C-25.28185873 27.37579261 -25.98629391 23.34913218 -25.9375 18.0625 C-25.93250488 17.35649658 -25.92750977 16.65049316 -25.92236328 15.9230957 C-25.72750459 10.10353997 -24.65649186 6.01062246 -20.4375 1.9375 C-14.57994731 -2.52539729 -6.78156746 -2.09612085 0 0 Z M-16.4375 9.9375 C-18.39505973 13.85261947 -17.80175271 18.65907408 -17.4375 22.9375 C-16.26505696 25.48628922 -15.37452622 27.00047378 -13.4375 28.9375 C-8.55013629 29.31116889 -8.55013629 29.31116889 -4.0625 27.625 C-0.44173537 23.86497519 -1.10471491 18.73804877 -1.1640625 13.8359375 C-1.28370675 10.77644504 -1.28370675 10.77644504 -3 7.6875 C-8.15950405 3.98324068 -12.70728495 5.05952647 -16.4375 9.9375 Z " fill="#143E68" transform="translate(542.4375,524.0625)"/>
<path d="M0 0 C2.14863375 -0.06183119 4.29726821 -0.12344478 6.44595337 -0.18347168 C8.09670043 -0.23246528 9.74711061 -0.293152 11.3972168 -0.36035156 C15.44692845 -0.41666694 17.50103852 -0.31241573 21.01953125 1.890625 C23.59919138 4.63819201 23.96222859 5.49952886 24.25 9.3125 C23.9880063 13.1769071 23.37421541 14.98657275 21 18 C20.34 18 19.68 18 19 18 C19.63228516 19.21236328 19.63228516 19.21236328 20.27734375 20.44921875 C20.82519531 21.51785156 21.37304688 22.58648438 21.9375 23.6875 C22.75541016 25.27111328 22.75541016 25.27111328 23.58984375 26.88671875 C24.85167148 29.67252679 25.65631557 31.97230383 26 35 C25 36 25 36 22.0625 36.125 C19 36 19 36 17 35 C15.68696243 31.96750847 14.55926255 28.88458477 13.4140625 25.78515625 C11.90118884 22.80538022 11.10332734 22.04984904 8 21 C8.02320313 21.91523437 8.04640625 22.83046875 8.0703125 23.7734375 C8.09738281 25.55621094 8.09738281 25.55621094 8.125 27.375 C8.14820313 28.55835938 8.17140625 29.74171875 8.1953125 30.9609375 C8 34 8 34 6 36 C3.4375 36.1875 3.4375 36.1875 1 36 C0 35 0 35 -0.11352539 31.67358398 C-0.11336629 30.19774444 -0.10767314 28.72189931 -0.09765625 27.24609375 C-0.09553383 26.08292381 -0.09553383 26.08292381 -0.09336853 24.89625549 C-0.08775345 22.40996506 -0.07519846 19.9237634 -0.0625 17.4375 C-0.05748694 15.75586067 -0.0529237 14.07421994 -0.04882812 12.39257812 C-0.03777913 8.26168434 -0.02050445 4.13085724 0 0 Z M8 6 C8 8.97 8 11.94 8 15 C10.80362763 15.22732116 12.46186517 15.34081872 14.875 13.8125 C16.27887164 11.97003101 16.27887164 11.97003101 15.6875 9.3125 C15.460625 8.549375 15.23375 7.78625 15 7 C12.69 6.67 10.38 6.34 8 6 Z " fill="#133C65" transform="translate(822,524)"/>
<path d="M0 0 C2.825625 -0.0825 5.65125 -0.165 8.5625 -0.25 C9.43849854 -0.28641602 10.31449707 -0.32283203 11.21704102 -0.36035156 C16.99493168 -0.44126161 20.36538915 0.46998115 25 4 C28.04485678 8.43341109 28.43210093 12.18731962 28.4375 17.5 C28.46650391 19.40265625 28.46650391 19.40265625 28.49609375 21.34375 C27.78508028 26.58397529 25.07281589 30.63549992 21 34 C18.23434618 34.92188461 16.61716298 35.11785222 13.76953125 35.09765625 C12.68442261 35.09390991 12.68442261 35.09390991 11.57739258 35.09008789 C10.20877075 35.07643188 10.20877075 35.07643188 8.8125 35.0625 C5.904375 35.041875 2.99625 35.02125 0 35 C0 23.45 0 11.9 0 0 Z M7 6 C7 13.59 7 21.18 7 29 C14.23031931 29.18157103 14.23031931 29.18157103 19 25 C20.96752105 21.0649579 20.46422595 16.2894478 20 12 C18.19881522 8.99802536 17.09667268 7.54833634 14 6 C11.69 6 9.38 6 7 6 Z " fill="#143F69" transform="translate(704,524)"/>
<path d="M0 0 C2.5 0.125 2.5 0.125 3.5 1.125 C3.57258946 3.31139453 3.58373783 5.50000389 3.5625 7.6875 C3.55347656 8.88503906 3.54445313 10.08257813 3.53515625 11.31640625 C3.52355469 12.24324219 3.51195312 13.17007813 3.5 14.125 C7.46 14.125 11.42 14.125 15.5 14.125 C15.48839844 13.19816406 15.47679687 12.27132812 15.46484375 11.31640625 C15.45582031 10.11886719 15.44679688 8.92132812 15.4375 7.6875 C15.42589844 6.49253906 15.41429687 5.29757812 15.40234375 4.06640625 C15.5 1.125 15.5 1.125 16.5 0.125 C18.81 0.455 21.12 0.785 23.5 1.125 C23.5 12.675 23.5 24.225 23.5 36.125 C20.035 36.62 20.035 36.62 16.5 37.125 C15.5 36.125 15.5 36.125 15.40234375 32.74609375 C15.40901631 31.35152923 15.42097468 29.95698257 15.4375 28.5625 C15.44201172 27.85158203 15.44652344 27.14066406 15.45117188 26.40820312 C15.46299136 24.64709987 15.48092737 22.88603964 15.5 21.125 C11.54 21.125 7.58 21.125 3.5 21.125 C3.51160156 22.19621094 3.52320313 23.26742187 3.53515625 24.37109375 C3.54453299 25.76822743 3.55363331 27.16536299 3.5625 28.5625 C3.57087891 29.26955078 3.57925781 29.97660156 3.58789062 30.70507812 C3.59653588 32.51193559 3.55220011 34.31887603 3.5 36.125 C2.5 37.125 2.5 37.125 0 37.25 C-2.5 37.125 -2.5 37.125 -3.5 36.125 C-3.60091475 33.54310554 -3.63971499 30.988535 -3.6328125 28.40625 C-3.63376923 27.63317505 -3.63472595 26.8601001 -3.63571167 26.06359863 C-3.63639341 24.42602456 -3.63453957 22.78844781 -3.63037109 21.15087891 C-3.62502271 18.63568079 -3.63031626 16.12066127 -3.63671875 13.60546875 C-3.63605797 12.01822877 -3.6347768 10.4309889 -3.6328125 8.84375 C-3.63483673 8.08646606 -3.63686096 7.32918213 -3.63894653 6.5489502 C-3.61016293 0.18050815 -3.61016293 0.18050815 0 0 Z " fill="#143F69" transform="translate(1061.5,522.875)"/>
<path d="M0 0 C4.00565114 5.41518454 5.64053773 12.18492209 7.75 18.5 C8.17410156 19.72332031 8.59820312 20.94664062 9.03515625 22.20703125 C9.43089844 23.38652344 9.82664062 24.56601562 10.234375 25.78125 C10.59756836 26.85439453 10.96076172 27.92753906 11.33496094 29.03320312 C12.02839533 32.12667403 11.87192978 33.9838205 11 37 C9.02 37 7.04 37 5 37 C2 31.25 2 31.25 2 29 C-1.96 29.33 -5.92 29.66 -10 30 C-10.99 32.31 -11.98 34.62 -13 37 C-14.98 37 -16.96 37 -19 37 C-20.69187716 32.92748837 -19.15167906 29.56881737 -17.76171875 25.64453125 C-17.52089066 24.94228928 -17.28006256 24.2400473 -17.03193665 23.51652527 C-16.52159443 22.03634655 -16.00602326 20.55796174 -15.4855957 19.08129883 C-14.6882298 16.81457465 -13.91037363 14.54182688 -13.13476562 12.26757812 C-12.636561 10.83033199 -12.13724988 9.39346882 -11.63671875 7.95703125 C-11.40329269 7.27477982 -11.16986664 6.59252838 -10.92936707 5.88960266 C-8.72627327 -0.30297522 -6.5307613 -0.68744856 0 0 Z M-5 11 C-6.485 16.445 -6.485 16.445 -8 22 C-5.36 22 -2.72 22 0 22 C-0.44876616 20.35153231 -0.90930488 18.70626545 -1.375 17.0625 C-1.75785156 15.68771484 -1.75785156 15.68771484 -2.1484375 14.28515625 C-2.76660104 11.83254913 -2.76660104 11.83254913 -5 11 Z " fill="#133C66" transform="translate(467,523)"/>
<path d="M0 0 C3.5625 0.3125 3.5625 0.3125 5.12792969 1.41235352 C7.15299879 4.09463957 8.00602205 6.84540798 9.078125 10.02734375 C9.29821228 10.67949356 9.51829956 11.33164337 9.74505615 12.0035553 C10.20658647 13.3797011 10.66354462 14.7573877 11.11621094 16.13647461 C11.81048728 18.24389057 12.52528658 20.34354774 13.2421875 22.44335938 C13.68875629 23.78343617 14.13411018 25.12391857 14.578125 26.46484375 C14.98321289 27.68163818 15.38830078 28.89843262 15.80566406 30.15209961 C16.52058194 33.13745831 16.67441149 34.51140529 15.5625 37.3125 C12.75 37.625 12.75 37.625 9.5625 37.3125 C7.25108396 34.46175356 6.5625 32.9985549 6.5625 29.3125 C2.2725 29.3125 -2.0175 29.3125 -6.4375 29.3125 C-6.7675 31.2925 -7.0975 33.2725 -7.4375 35.3125 C-9.4375 37.3125 -9.4375 37.3125 -12.0625 37.4375 C-12.84625 37.39625 -13.63 37.355 -14.4375 37.3125 C-15.82657144 32.73479204 -14.92859518 29.80356831 -13.41796875 25.33203125 C-13.1993367 24.67796799 -12.98070465 24.02390472 -12.75544739 23.35002136 C-12.29276505 21.97401689 -11.82427613 20.59995283 -11.3503418 19.2277832 C-10.62524155 17.12570026 -9.91967141 15.01780873 -9.21679688 12.90820312 C-5.00475175 0.45497743 -5.00475175 0.45497743 0 0 Z M-0.4375 10.3125 C-0.94309908 11.74804025 -1.4417749 13.1860202 -1.9375 14.625 C-2.2159375 15.42550781 -2.494375 16.22601562 -2.78125 17.05078125 C-3.57683107 19.40019422 -3.57683107 19.40019422 -3.4375 22.3125 C-1.1275 22.3125 1.1825 22.3125 3.5625 22.3125 C3.27890113 20.8733866 2.98528601 19.43624482 2.6875 18 C2.44386719 16.79923828 2.44386719 16.79923828 2.1953125 15.57421875 C1.61771001 13.05948882 1.61771001 13.05948882 -0.4375 10.3125 Z " fill="#133D68" transform="translate(989.4375,522.6875)"/>
<path d="M0 0 C2.33944736 0.28730055 4.6739143 0.61936779 7 1 C7.01981934 1.77714355 7.03963867 2.55428711 7.06005859 3.35498047 C7.15507009 6.86200691 7.26484559 10.36841794 7.375 13.875 C7.4059375 15.09832031 7.436875 16.32164062 7.46875 17.58203125 C7.50742187 18.74863281 7.54609375 19.91523437 7.5859375 21.1171875 C7.6173584 22.19597168 7.6487793 23.27475586 7.68115234 24.38623047 C7.74676322 27.15761654 7.74676322 27.15761654 10 29 C13 29.33333333 13 29.33333333 16 29 C18.67848546 26.32151454 18.30504006 24.86029139 18.4140625 21.1171875 C18.45273437 19.95058594 18.49140625 18.78398438 18.53125 17.58203125 C18.5621875 16.35871094 18.593125 15.13539063 18.625 13.875 C18.66367187 12.64394531 18.70234375 11.41289063 18.7421875 10.14453125 C18.8366999 7.09650624 18.92225494 4.04849138 19 1 C21.3260857 0.61936779 23.66055264 0.28730055 26 0 C28.68616851 2.68616851 27.23512196 10.57399724 27.25 14.1875 C27.270625 15.42048828 27.29125 16.65347656 27.3125 17.92382812 C27.31765625 19.11814453 27.3228125 20.31246094 27.328125 21.54296875 C27.3374707 22.63633545 27.34681641 23.72970215 27.35644531 24.85620117 C26.94367434 28.49678458 25.88436503 30.87392279 24 34 C18.92524254 37.80606809 13.09559179 37.82421821 7 37 C2.86263772 34.96761151 0.63197614 33.28676824 -1 29 C-1.24291992 25.99145508 -1.24291992 25.99145508 -1.23046875 22.51953125 C-1.22853516 21.27365234 -1.22660156 20.02777344 -1.22460938 18.74414062 C-1.21236328 17.44669922 -1.20011719 16.14925781 -1.1875 14.8125 C-1.18685547 13.50345703 -1.18621094 12.19441406 -1.18554688 10.84570312 C-1.14021767 1.14021767 -1.14021767 1.14021767 0 0 Z " fill="#133E68" transform="translate(738,523)"/>
<path d="M0 0 C3.5 0.1875 3.5 0.1875 5.5 1.1875 C6.47012536 3.58454722 7.32757663 5.94680165 8.13671875 8.3984375 C8.38041702 9.12237701 8.6241153 9.84631653 8.87519836 10.5921936 C9.38905393 12.12596663 9.89905568 13.66103531 10.40551758 15.19726562 C11.18331421 17.5498394 11.97847589 19.89603112 12.77539062 22.2421875 C13.27189712 23.73141659 13.76737431 25.22098933 14.26171875 26.7109375 C14.62096687 27.76575821 14.62096687 27.76575821 14.98747253 28.84188843 C16.61477836 33.84316492 16.61477836 33.84316492 15.5 37.1875 C13.19 37.1875 10.88 37.1875 8.5 37.1875 C7.51 34.8775 6.52 32.5675 5.5 30.1875 C1.54 29.8575 -2.42 29.5275 -6.5 29.1875 C-6.809375 30.321875 -7.11875 31.45625 -7.4375 32.625 C-8.5 36.1875 -8.5 36.1875 -9.5 37.1875 C-12 37.3125 -12 37.3125 -14.5 37.1875 C-14.83 36.8575 -15.16 36.5275 -15.5 36.1875 C-15.12543194 28.64132392 -12.56577231 21.88747621 -10.0625 14.8125 C-9.65451172 13.62527344 -9.24652344 12.43804688 -8.82617188 11.21484375 C-5.00035016 0.2678759 -5.00035016 0.2678759 0 0 Z M-0.5 10.1875 C-1.82 14.1475 -3.14 18.1075 -4.5 22.1875 C-1.86 22.1875 0.78 22.1875 3.5 22.1875 C2.51 18.2275 1.52 14.2675 0.5 10.1875 C0.17 10.1875 -0.16 10.1875 -0.5 10.1875 Z " fill="#133D67" transform="translate(601.5,522.8125)"/>
<path d="M0 0 C4.00712139 5.40964481 5.60083029 12.18341448 7.6875 18.5 C8.10322266 19.72332031 8.51894531 20.94664062 8.94726562 22.20703125 C9.33978516 23.38652344 9.73230469 24.56601562 10.13671875 25.78125 C10.67365356 27.3909668 10.67365356 27.3909668 11.22143555 29.03320312 C11.95898139 31.84369452 12.15921425 34.11344893 12 37 C9.69 37 7.38 37 5 37 C4.01 34.69 3.02 32.38 2 30 C-1.96 29.67 -5.92 29.34 -10 29 C-10.309375 30.134375 -10.61875 31.26875 -10.9375 32.4375 C-12 36 -12 36 -13 37 C-14.99958364 37.04080783 -17.00045254 37.04254356 -19 37 C-20.33423672 32.99728985 -19.06730993 30.35690113 -17.76171875 26.5234375 C-17.52089066 25.79758453 -17.28006256 25.07173157 -17.03193665 24.32388306 C-16.52086102 22.7909551 -16.00529665 21.25951746 -15.4855957 19.72949219 C-14.68950923 17.3809275 -13.91119936 15.02699994 -13.13476562 12.671875 C-12.63646902 11.18454285 -12.13715449 9.69755127 -11.63671875 8.2109375 C-11.40329269 7.50367523 -11.16986664 6.79641296 -10.92936707 6.06771851 C-8.76118655 -0.25245413 -6.65734158 -0.7007728 0 0 Z M-5 11 C-6.485 16.445 -6.485 16.445 -8 22 C-5.36 22 -2.72 22 0 22 C-0.99 18.37 -1.98 14.74 -3 11 C-3.66 11 -4.32 11 -5 11 Z " fill="#133D68" transform="translate(882,523)"/>
<path d="M0 0 C0.76183594 -0.01417969 1.52367187 -0.02835938 2.30859375 -0.04296875 C4.79597315 0.21137334 6.41058106 0.94732804 8.5625 2.1875 C8.5625 4.4975 8.5625 6.8075 8.5625 9.1875 C7.93601562 9.03152344 7.30953125 8.87554688 6.6640625 8.71484375 C5.84679687 8.52019531 5.02953125 8.32554687 4.1875 8.125 C3.37539063 7.92777344 2.56328125 7.73054687 1.7265625 7.52734375 C-0.47911284 6.96640681 -0.47911284 6.96640681 -2.4375 8.1875 C-3.08963292 10.21213255 -3.08963292 10.21213255 -3.4375 12.1875 C-2.756875 12.435 -2.07625 12.6825 -1.375 12.9375 C3.38458219 14.96285412 7.62207837 16.77686756 10.5625 21.1875 C11.2445176 24.95654461 11.39348707 28.64378171 9.546875 32.07421875 C7.40607352 34.7373242 5.82191392 36.10102869 2.5625 37.1875 C-2.05243432 37.59423997 -6.17887161 37.64060622 -10.5625 36.0625 C-11.18125 35.44375 -11.8 34.825 -12.4375 34.1875 C-12.4375 32.2075 -12.4375 30.2275 -12.4375 28.1875 C-8.1475 28.5175 -3.8575 28.8475 0.5625 29.1875 C0.8925 27.8675 1.2225 26.5475 1.5625 25.1875 C0.53189453 24.60742188 0.53189453 24.60742188 -0.51953125 24.015625 C-1.42058594 23.49484375 -2.32164062 22.9740625 -3.25 22.4375 C-4.14332031 21.92703125 -5.03664063 21.4165625 -5.95703125 20.890625 C-9.15088427 18.69768025 -11.10257237 16.8742076 -11.87109375 13.00390625 C-11.87810963 8.95574135 -11.76626827 6.73166818 -9.625 3.1875 C-6.54469175 0.37121817 -4.0277699 0.03396096 0 0 Z " fill="#143E68" transform="translate(781.4375,522.8125)"/>
<path d="M0 0 C3.125 1.125 3.125 1.125 5 3 C5.3125 6.1875 5.3125 6.1875 5 9 C4.01 9.33 3.02 9.66 2 10 C1.4225 9.67 0.845 9.34 0.25 9 C-3.09465813 7.51348528 -5.50963998 8.15972814 -9 9 C-12.24713174 13.87069761 -12.3291506 18.29938855 -11.25 23.875 C-10.24356447 27.24678339 -10.24356447 27.24678339 -7 29 C-2.92509248 29.33957563 -1.46998729 29.31332486 2 27 C2.99 27 3.98 27 5 27 C5 29.31 5 31.62 5 34 C-0.0653808 37.11715741 -4.20664036 37.74887234 -10 37 C-15.21440424 35.22907026 -17.32620669 32.75341032 -20 28 C-22.16704128 21.49887617 -21.76169772 14.02127651 -19.05859375 7.72265625 C-14.51490472 0.32868259 -8.02214274 -0.68005606 0 0 Z " fill="#143E68" transform="translate(1049,523)"/>
<path d="M0 0 C8.91 0 17.82 0 27 0 C27 1.98 27 3.96 27 6 C24.03 6 21.06 6 18 6 C18 15.57 18 25.14 18 35 C14.535 35.495 14.535 35.495 11 36 C10 35 10 35 9.88647461 32.22436523 C9.89171143 31.01466064 9.89694824 29.80495605 9.90234375 28.55859375 C9.90556641 27.25341797 9.90878906 25.94824219 9.91210938 24.60351562 C9.92046599 23.2148431 9.92893095 21.82617123 9.9375 20.4375 C9.94251334 19.04492344 9.94707653 17.65234519 9.95117188 16.25976562 C9.96300566 12.8398013 9.9794912 9.41992156 10 6 C6.7 6 3.4 6 0 6 C0 4.02 0 2.04 0 0 Z " fill="#133D66" transform="translate(792,524)"/>
<path d="M0 0 C1.084021 0.00523682 2.16804199 0.01047363 3.28491211 0.01586914 C5.03964844 0.02070312 5.03964844 0.02070312 6.82983398 0.02563477 C8.67738281 0.03820312 8.67738281 0.03820312 10.56225586 0.05102539 C12.41560547 0.05779297 12.41560547 0.05779297 14.30639648 0.06469727 C17.37089703 0.07652931 20.43530307 0.09301366 23.49975586 0.11352539 C23.49975586 2.09352539 23.49975586 4.07352539 23.49975586 6.11352539 C20.52975586 6.11352539 17.55975586 6.11352539 14.49975586 6.11352539 C14.49975586 15.68352539 14.49975586 25.25352539 14.49975586 35.11352539 C11.03475586 35.60852539 11.03475586 35.60852539 7.49975586 36.11352539 C6.49975586 35.11352539 6.49975586 35.11352539 6.38623047 32.33789062 C6.39146729 31.12818604 6.3967041 29.91848145 6.40209961 28.67211914 C6.40532227 27.36694336 6.40854492 26.06176758 6.41186523 24.71704102 C6.42022185 23.32836849 6.42868681 21.93969662 6.43725586 20.55102539 C6.4422692 19.15844883 6.44683239 17.76587058 6.45092773 16.37329102 C6.46276152 12.95332669 6.47924706 9.53344695 6.49975586 6.11352539 C3.52975586 6.11352539 0.55975586 6.11352539 -2.50024414 6.11352539 C-2.88243181 4.45737882 -3.21419516 2.78895515 -3.50024414 1.11352539 C-2.50024414 0.11352539 -2.50024414 0.11352539 0 0 Z " fill="#143F69" transform="translate(1004.500244140625,523.886474609375)"/>
<path d="M0 0 C8.58 0 17.16 0 26 0 C26 1.98 26 3.96 26 6 C23.03 6 20.06 6 17 6 C17.00785522 7.30988892 17.00785522 7.30988892 17.01586914 8.64624023 C17.03287751 11.87589273 17.04543369 15.10552245 17.05493164 18.33520508 C17.0599708 19.73495228 17.06680216 21.1346942 17.07543945 22.53442383 C17.0875232 24.54245777 17.09269807 26.55052957 17.09765625 28.55859375 C17.10551147 30.37315063 17.10551147 30.37315063 17.11352539 32.22436523 C17 35 17 35 16 36 C13.69 35.67 11.38 35.34 9 35 C9 25.43 9 15.86 9 6 C6.03 6 3.06 6 0 6 C0 4.02 0 2.04 0 0 Z " fill="#143F69" transform="translate(475,524)"/>
<path d="M0 0 C1 1 1 1 1.11352539 3.77563477 C1.10828857 4.98533936 1.10305176 6.19504395 1.09765625 7.44140625 C1.09443359 8.74658203 1.09121094 10.05175781 1.08789062 11.39648438 C1.07953401 12.7851569 1.07106905 14.17382877 1.0625 15.5625 C1.05748666 16.95507656 1.05292347 18.34765481 1.04882812 19.74023438 C1.03699434 23.1601987 1.0205088 26.58007844 1 30 C4.96 30 8.92 30 13 30 C13 31.98 13 33.96 13 36 C9.85418577 36.02888514 6.70840531 36.04675923 3.5625 36.0625 C2.66466797 36.07087891 1.76683594 36.07925781 0.84179688 36.08789062 C-0.43920898 36.09272461 -0.43920898 36.09272461 -1.74609375 36.09765625 C-2.53685303 36.10289307 -3.3276123 36.10812988 -4.14233398 36.11352539 C-6 36 -6 36 -7 35 C-7.08847743 32.47905924 -7.11527301 29.98569107 -7.09765625 27.46484375 C-7.0962413 26.71159317 -7.09482635 25.95834259 -7.09336853 25.18226624 C-7.08775376 22.7673044 -7.07519883 20.35243399 -7.0625 17.9375 C-7.0574869 16.30403779 -7.05292366 14.67057414 -7.04882812 13.03710938 C-7.03777954 9.02470415 -7.02050506 5.01236759 -7 1 C-4.51588385 -0.24205807 -2.74800896 -0.14092354 0 0 Z " fill="#143F69" transform="translate(904,523)"/>
<path d="M0 0 C2.5 0.125 2.5 0.125 3.5 1.125 C3.58775605 3.27058827 3.60695219 5.41904421 3.59765625 7.56640625 C3.59443359 8.87158203 3.59121094 10.17675781 3.58789062 11.52148438 C3.57953401 12.9101569 3.57106905 14.29882877 3.5625 15.6875 C3.55748666 17.08007656 3.55292347 18.47265481 3.54882812 19.86523438 C3.53699434 23.2851987 3.5205088 26.70507844 3.5 30.125 C7.46 30.125 11.42 30.125 15.5 30.125 C15.5 32.105 15.5 34.085 15.5 36.125 C9.23 36.125 2.96 36.125 -3.5 36.125 C-3.52290956 31.15871566 -3.54283643 26.19261337 -3.55493164 21.22631836 C-3.5599719 19.53555684 -3.56680405 17.84479971 -3.57543945 16.15405273 C-3.58751857 13.72899293 -3.59323123 11.30399056 -3.59765625 8.87890625 C-3.60281754 8.11848526 -3.60797882 7.35806427 -3.61329651 6.57460022 C-3.61349238 4.7576743 -3.56197277 2.94086873 -3.5 1.125 C-2.5 0.125 -2.5 0.125 0 0 Z " fill="#143F69" transform="translate(624.5,522.875)"/>
<path d="M0 0 C2.31 0.33 4.62 0.66 7 1 C7 12.55 7 24.1 7 36 C3.535 36.495 3.535 36.495 0 37 C-1.76072584 35.23927416 -1.12834784 32.9210371 -1.13894653 30.5760498 C-1.1369223 29.81876587 -1.13489807 29.06148193 -1.1328125 28.28125 C-1.13376923 27.50817505 -1.13472595 26.7351001 -1.13571167 25.93859863 C-1.13639341 24.30102456 -1.13453957 22.66344781 -1.13037109 21.02587891 C-1.12502271 18.51068079 -1.13031626 15.99566127 -1.13671875 13.48046875 C-1.13605797 11.89322877 -1.1347768 10.3059889 -1.1328125 8.71875 C-1.13483673 7.96146606 -1.13686096 7.20418213 -1.13894653 6.4239502 C-1.11495132 1.11495132 -1.11495132 1.11495132 0 0 Z " fill="#143E69" transform="translate(656,523)"/>
<path d="M0 0 C1.76072584 1.76072584 1.12834784 4.0789629 1.13894653 6.4239502 C1.1369223 7.18123413 1.13489807 7.93851807 1.1328125 8.71875 C1.13376923 9.49182495 1.13472595 10.2648999 1.13571167 11.06140137 C1.13639341 12.69897544 1.13453957 14.33655219 1.13037109 15.97412109 C1.12502271 18.48931921 1.13031626 21.00433873 1.13671875 23.51953125 C1.13605797 25.10677123 1.1347768 26.6940111 1.1328125 28.28125 C1.13483673 29.03853394 1.13686096 29.79581787 1.13894653 30.5760498 C1.11495132 35.88504868 1.11495132 35.88504868 0 37 C-2.31 36.67 -4.62 36.34 -7 36 C-7 24.45 -7 12.9 -7 1 C-4.51588385 -0.24205807 -2.74800896 -0.14092354 0 0 Z " fill="#143F68" transform="translate(511,523)"/>
<path d="M0 0 C1.76072584 1.76072584 1.12834784 4.0789629 1.13894653 6.4239502 C1.1369223 7.18123413 1.13489807 7.93851807 1.1328125 8.71875 C1.13376923 9.49182495 1.13472595 10.2648999 1.13571167 11.06140137 C1.13639341 12.69897544 1.13453957 14.33655219 1.13037109 15.97412109 C1.12502271 18.48931921 1.13031626 21.00433873 1.13671875 23.51953125 C1.13605797 25.10677123 1.1347768 26.6940111 1.1328125 28.28125 C1.13483673 29.03853394 1.13686096 29.79581787 1.13894653 30.5760498 C1.11495132 35.88504868 1.11495132 35.88504868 0 37 C-2.31 36.67 -4.62 36.34 -7 36 C-7 24.45 -7 12.9 -7 1 C-4.51588385 -0.24205807 -2.74800896 -0.14092354 0 0 Z " fill="#143F69" transform="translate(858,523)"/>
<path d="M0 0 C0.66 0.33 1.32 0.66 2 1 C0.88663796 4.1500759 -0.24261006 7.29421919 -1.375 10.4375 C-1.69210937 11.33533203 -2.00921875 12.23316406 -2.3359375 13.15820312 C-2.6453125 14.01220703 -2.9546875 14.86621094 -3.2734375 15.74609375 C-3.55622559 16.53685303 -3.83901367 17.3276123 -4.13037109 18.14233398 C-5 20 -5 20 -7 21 C-5.34886481 13.60741743 -3.37964731 6.79360575 0 0 Z " fill="#8C6C1B" transform="translate(529,312)"/>
</svg>
